<svg xmlns="http://www.w3.org/2000/svg" width="1200" height="800" viewBox="0 0 1200 800" role="img" aria-label="Which one are you?">
  <defs>
    <radialGradient id="bg" cx="32%" cy="30%" r="95%">
      <stop offset="0%" stop-color="#4a1440"/>
      <stop offset="60%" stop-color="#241338"/>
      <stop offset="100%" stop-color="#0b0812"/>
    </radialGradient>
    <radialGradient id="halo" cx="50%" cy="50%" r="50%">
      <stop offset="0%" stop-color="#c9a2ff" stop-opacity="0.55"/>
      <stop offset="55%" stop-color="#c9a2ff" stop-opacity="0.12"/>
      <stop offset="100%" stop-color="#c9a2ff" stop-opacity="0"/>
    </radialGradient>
    <linearGradient id="fade" x1="0" y1="0" x2="0" y2="1">
      <stop offset="0%" stop-color="#0b0812" stop-opacity="0"/>
      <stop offset="100%" stop-color="#0b0812" stop-opacity="0.92"/>
    </linearGradient>
    <filter id="soft" x="-40%" y="-40%" width="180%" height="180%">
      <feGaussianBlur stdDeviation="9"/>
    </filter>
  </defs>

  <rect width="1200" height="800" fill="url(#bg)"/>
  <circle cx="288" cy="221" r="0.86" fill="#fff" opacity="0.19"/><circle cx="858" cy="677" r="0.44" fill="#fff" opacity="0.51"/><circle cx="124" cy="171" r="1.56" fill="#fff" opacity="0.29"/><circle cx="431" cy="284" r="1.13" fill="#fff" opacity="0.47"/><circle cx="471" cy="383" r="1.37" fill="#fff" opacity="0.35"/><circle cx="152" cy="586" r="1.54" fill="#fff" opacity="0.17"/><circle cx="365" cy="100" r="1.22" fill="#fff" opacity="0.18"/><circle cx="434" cy="739" r="1.59" fill="#fff" opacity="0.51"/><circle cx="1161" cy="38" r="0.88" fill="#fff" opacity="0.54"/><circle cx="38" cy="171" r="1.68" fill="#fff" opacity="0.24"/><circle cx="339" cy="697" r="1.50" fill="#fff" opacity="0.62"/><circle cx="871" cy="124" r="1.04" fill="#fff" opacity="0.45"/><circle cx="685" cy="330" r="0.71" fill="#fff" opacity="0.46"/><circle cx="547" cy="38" r="1.51" fill="#fff" opacity="0.22"/><circle cx="43" cy="554" r="0.94" fill="#fff" opacity="0.44"/><circle cx="336" cy="796" r="0.53" fill="#fff" opacity="0.23"/><circle cx="48" cy="413" r="0.75" fill="#fff" opacity="0.31"/><circle cx="879" cy="409" r="0.62" fill="#fff" opacity="0.42"/><circle cx="234" cy="495" r="0.92" fill="#fff" opacity="0.22"/><circle cx="82" cy="559" r="1.87" fill="#fff" opacity="0.16"/><circle cx="309" cy="294" r="1.58" fill="#fff" opacity="0.32"/><circle cx="383" cy="780" r="1.18" fill="#fff" opacity="0.50"/><circle cx="1013" cy="27" r="1.33" fill="#fff" opacity="0.34"/><circle cx="196" cy="309" r="1.73" fill="#fff" opacity="0.39"/><circle cx="1151" cy="492" r="1.76" fill="#fff" opacity="0.26"/><circle cx="729" cy="364" r="0.47" fill="#fff" opacity="0.49"/><circle cx="394" cy="189" r="1.14" fill="#fff" opacity="0.48"/><circle cx="574" cy="489" r="1.74" fill="#fff" opacity="0.46"/><circle cx="663" cy="79" r="1.54" fill="#fff" opacity="0.51"/><circle cx="882" cy="143" r="0.99" fill="#fff" opacity="0.33"/><circle cx="83" cy="1" r="0.40" fill="#fff" opacity="0.20"/><circle cx="697" cy="736" r="0.99" fill="#fff" opacity="0.34"/><circle cx="1112" cy="334" r="1.75" fill="#fff" opacity="0.53"/><circle cx="480" cy="120" r="1.34" fill="#fff" opacity="0.39"/><circle cx="449" cy="115" r="0.82" fill="#fff" opacity="0.41"/><circle cx="602" cy="330" r="1.31" fill="#fff" opacity="0.45"/><circle cx="314" cy="397" r="1.09" fill="#fff" opacity="0.47"/><circle cx="808" cy="567" r="1.53" fill="#fff" opacity="0.53"/><circle cx="303" cy="68" r="1.45" fill="#fff" opacity="0.46"/><circle cx="663" cy="246" r="1.41" fill="#fff" opacity="0.19"/><circle cx="1017" cy="111" r="1.46" fill="#fff" opacity="0.63"/><circle cx="970" cy="76" r="1.87" fill="#fff" opacity="0.57"/><circle cx="271" cy="324" r="0.75" fill="#fff" opacity="0.65"/><circle cx="161" cy="405" r="0.54" fill="#fff" opacity="0.48"/><circle cx="1070" cy="478" r="0.44" fill="#fff" opacity="0.54"/><circle cx="69" cy="7" r="1.89" fill="#fff" opacity="0.42"/><circle cx="169" cy="334" r="0.33" fill="#fff" opacity="0.23"/><circle cx="664" cy="122" r="0.63" fill="#fff" opacity="0.29"/><circle cx="399" cy="106" r="1.38" fill="#fff" opacity="0.47"/><circle cx="578" cy="142" r="0.82" fill="#fff" opacity="0.50"/><circle cx="1178" cy="577" r="0.63" fill="#fff" opacity="0.48"/><circle cx="994" cy="155" r="0.33" fill="#fff" opacity="0.16"/><circle cx="784" cy="461" r="1.12" fill="#fff" opacity="0.45"/><circle cx="917" cy="730" r="1.31" fill="#fff" opacity="0.34"/><circle cx="819" cy="617" r="1.42" fill="#fff" opacity="0.21"/><circle cx="612" cy="758" r="0.40" fill="#fff" opacity="0.26"/><circle cx="832" cy="715" r="1.70" fill="#fff" opacity="0.33"/><circle cx="27" cy="540" r="1.89" fill="#fff" opacity="0.62"/><circle cx="1129" cy="348" r="0.70" fill="#fff" opacity="0.31"/><circle cx="585" cy="529" r="0.91" fill="#fff" opacity="0.38"/><circle cx="552" cy="598" r="1.21" fill="#fff" opacity="0.29"/><circle cx="747" cy="513" r="0.74" fill="#fff" opacity="0.65"/><circle cx="35" cy="448" r="1.60" fill="#fff" opacity="0.27"/><circle cx="964" cy="60" r="1.82" fill="#fff" opacity="0.49"/><circle cx="1133" cy="47" r="0.74" fill="#fff" opacity="0.38"/><circle cx="1186" cy="206" r="0.90" fill="#fff" opacity="0.42"/><circle cx="730" cy="425" r="1.71" fill="#fff" opacity="0.20"/><circle cx="561" cy="790" r="1.82" fill="#fff" opacity="0.27"/><circle cx="1115" cy="455" r="1.68" fill="#fff" opacity="0.55"/><circle cx="500" cy="649" r="1.26" fill="#fff" opacity="0.18"/><circle cx="644" cy="669" r="1.51" fill="#fff" opacity="0.38"/><circle cx="321" cy="650" r="0.49" fill="#fff" opacity="0.62"/><circle cx="966" cy="323" r="1.37" fill="#fff" opacity="0.17"/><circle cx="1066" cy="788" r="1.78" fill="#fff" opacity="0.39"/><circle cx="827" cy="505" r="1.74" fill="#fff" opacity="0.31"/><circle cx="697" cy="116" r="0.34" fill="#fff" opacity="0.21"/><circle cx="456" cy="508" r="1.65" fill="#fff" opacity="0.59"/><circle cx="1058" cy="341" r="0.87" fill="#fff" opacity="0.30"/><circle cx="916" cy="237" r="0.67" fill="#fff" opacity="0.18"/><circle cx="226" cy="259" r="0.95" fill="#fff" opacity="0.52"/><circle cx="835" cy="676" r="1.35" fill="#fff" opacity="0.63"/><circle cx="222" cy="245" r="0.61" fill="#fff" opacity="0.50"/><circle cx="113" cy="2" r="1.00" fill="#fff" opacity="0.46"/><circle cx="106" cy="794" r="1.06" fill="#fff" opacity="0.35"/><circle cx="1003" cy="549" r="1.57" fill="#fff" opacity="0.17"/><circle cx="849" cy="707" r="0.90" fill="#fff" opacity="0.39"/><circle cx="563" cy="220" r="0.77" fill="#fff" opacity="0.40"/><circle cx="368" cy="531" r="0.66" fill="#fff" opacity="0.36"/><circle cx="890" cy="354" r="1.39" fill="#fff" opacity="0.59"/><circle cx="352" cy="51" r="1.56" fill="#fff" opacity="0.26"/><circle cx="1124" cy="440" r="1.83" fill="#fff" opacity="0.59"/><circle cx="850" cy="225" r="1.51" fill="#fff" opacity="0.60"/><circle cx="28" cy="478" r="1.59" fill="#fff" opacity="0.41"/><circle cx="642" cy="775" r="1.21" fill="#fff" opacity="0.31"/><circle cx="745" cy="597" r="0.79" fill="#fff" opacity="0.44"/><circle cx="978" cy="624" r="1.21" fill="#fff" opacity="0.55"/><circle cx="926" cy="314" r="0.31" fill="#fff" opacity="0.24"/><circle cx="699" cy="391" r="0.97" fill="#fff" opacity="0.17"/><circle cx="638" cy="655" r="0.68" fill="#fff" opacity="0.28"/><circle cx="732" cy="523" r="1.73" fill="#fff" opacity="0.62"/><circle cx="445" cy="312" r="1.60" fill="#fff" opacity="0.34"/><circle cx="1152" cy="686" r="1.78" fill="#fff" opacity="0.44"/><circle cx="460" cy="262" r="1.86" fill="#fff" opacity="0.32"/><circle cx="430" cy="408" r="0.30" fill="#fff" opacity="0.24"/><circle cx="378" cy="28" r="1.46" fill="#fff" opacity="0.16"/><circle cx="450" cy="163" r="1.67" fill="#fff" opacity="0.24"/><circle cx="479" cy="797" r="0.93" fill="#fff" opacity="0.23"/><circle cx="498" cy="512" r="1.10" fill="#fff" opacity="0.34"/><circle cx="15" cy="178" r="1.21" fill="#fff" opacity="0.35"/><circle cx="638" cy="95" r="1.11" fill="#fff" opacity="0.19"/><circle cx="155" cy="221" r="0.82" fill="#fff" opacity="0.18"/><circle cx="46" cy="464" r="1.37" fill="#fff" opacity="0.38"/><circle cx="727" cy="680" r="1.53" fill="#fff" opacity="0.31"/><circle cx="1134" cy="176" r="1.84" fill="#fff" opacity="0.50"/><circle cx="313" cy="727" r="1.70" fill="#fff" opacity="0.30"/><circle cx="241" cy="533" r="1.51" fill="#fff" opacity="0.42"/><circle cx="938" cy="314" r="1.38" fill="#fff" opacity="0.22"/><circle cx="901" cy="568" r="1.02" fill="#fff" opacity="0.45"/><circle cx="519" cy="391" r="1.45" fill="#fff" opacity="0.30"/><circle cx="486" cy="487" r="0.78" fill="#fff" opacity="0.63"/><circle cx="698" cy="366" r="1.70" fill="#fff" opacity="0.55"/><circle cx="625" cy="754" r="1.35" fill="#fff" opacity="0.47"/><circle cx="51" cy="20" r="1.00" fill="#fff" opacity="0.45"/><circle cx="593" cy="35" r="1.00" fill="#fff" opacity="0.31"/><circle cx="262" cy="275" r="1.14" fill="#fff" opacity="0.62"/><circle cx="87" cy="785" r="1.88" fill="#fff" opacity="0.63"/><circle cx="82" cy="404" r="1.63" fill="#fff" opacity="0.61"/><circle cx="558" cy="84" r="0.62" fill="#fff" opacity="0.44"/><circle cx="1060" cy="493" r="1.31" fill="#fff" opacity="0.61"/><circle cx="340" cy="132" r="1.82" fill="#fff" opacity="0.19"/><circle cx="1047" cy="363" r="0.61" fill="#fff" opacity="0.28"/><circle cx="335" cy="782" r="1.69" fill="#fff" opacity="0.20"/><circle cx="677" cy="525" r="0.91" fill="#fff" opacity="0.59"/><circle cx="1085" cy="536" r="0.97" fill="#fff" opacity="0.64"/><circle cx="23" cy="402" r="1.38" fill="#fff" opacity="0.65"/><circle cx="813" cy="375" r="0.70" fill="#fff" opacity="0.51"/><circle cx="1025" cy="185" r="1.01" fill="#fff" opacity="0.59"/><circle cx="442" cy="57" r="1.81" fill="#fff" opacity="0.20"/><circle cx="99" cy="755" r="1.20" fill="#fff" opacity="0.55"/><circle cx="1188" cy="450" r="1.88" fill="#fff" opacity="0.55"/><circle cx="917" cy="42" r="0.78" fill="#fff" opacity="0.57"/><circle cx="729" cy="725" r="0.47" fill="#fff" opacity="0.40"/><circle cx="559" cy="240" r="1.25" fill="#fff" opacity="0.60"/><circle cx="1143" cy="792" r="1.75" fill="#fff" opacity="0.29"/><circle cx="647" cy="273" r="1.17" fill="#fff" opacity="0.50"/><circle cx="1034" cy="190" r="1.57" fill="#fff" opacity="0.56"/><circle cx="249" cy="707" r="0.77" fill="#fff" opacity="0.63"/><circle cx="619" cy="628" r="0.75" fill="#fff" opacity="0.56"/><circle cx="560" cy="314" r="0.61" fill="#fff" opacity="0.37"/><circle cx="595" cy="170" r="1.14" fill="#fff" opacity="0.35"/>
  <ellipse cx="760" cy="330" rx="520" ry="420" fill="url(#halo)"/>

  

  <g transform="translate(760 320)">
    <text x="0" y="0" text-anchor="middle" dominant-baseline="central"
      font-family="Georgia, 'Times New Roman', serif" font-size="440"
      fill="#c9a2ff" opacity="0.28" filter="url(#soft)">♏</text>
    <text x="0" y="0" text-anchor="middle" dominant-baseline="central"
      font-family="Georgia, 'Times New Roman', serif" font-size="420"
      fill="#f7f2fb" opacity="0.96">♏</text>
  </g>

  <rect x="0" y="430" width="1200" height="370" fill="url(#fade)"/>

  <g transform="translate(72 590)">
    <rect x="0" y="-34" width="46" height="3" fill="#c9a2ff"/>
    <text x="64" y="-24" font-family="'Helvetica Neue', Arial, sans-serif" font-size="21"
      letter-spacing="4" fill="#c9a2ff" font-weight="700">PERSONALITY</text>
    <text x="0" y="46" font-family="Georgia, 'Times New Roman', serif" font-size="76"
      font-weight="700" fill="#f7f2fb">Which one are you?</text>
  </g>

  <rect x="6" y="6" width="1188" height="788" fill="none"
    stroke="#c9a2ff" stroke-opacity="0.25" stroke-width="2" rx="4"/>
</svg>